<svg width="24" height="24" viewBox="0 0 24 24" fill="none" xmlns="http://www.w3.org/2000/svg">
  <path d="M8.53475 4.36305L8.71714 3.0863C8.93152 1.58441 10.2802 0.5 11.7975 0.5H12.2025C13.7198 0.5 15.0685 1.58441 15.2829 3.0863L15.4653 4.36305H18.5C20.1569 4.36305 21.5 5.70619 21.5 7.36305V9.36305C21.5 10.4676 20.6046 11.363 19.5 11.363H4.5C3.39543 11.363 2.5 10.4676 2.5 9.36305V7.36305C2.5 5.70619 3.84315 4.36305 5.5 4.36305H8.53475ZM10.5771 4.36305H13.4229L13.2983 3.4894C13.1984 2.79102 12.5747 2.27173 11.8683 2.27173H12.1317C11.4253 2.27173 10.8016 2.79102 10.7017 3.4894L10.5771 4.36305ZM3.5 13.363H10.5V23.363H6.5C4.84315 23.363 3.5 22.0199 3.5 20.363V13.363ZM13.5 13.363H20.5V20.363C20.5 22.0199 19.1569 23.363 17.5 23.363H13.5V13.363Z" fill="currentColor"/>
</svg>
