<svg xmlns="http://www.w3.org/2000/svg" viewBox="0 0 18.75 18.75" fill="currentColor"><path d="M7.90317 1.875H9.90631C10.0435 1.875 10.1547 1.98621 10.1547 2.12342C10.1547 4.38402 12.6019 5.79703 14.5597 4.66668C14.6785 4.59809 14.8304 4.63879 14.899 4.75758L15.9006 6.49243C15.9692 6.61124 15.9285 6.76317 15.8097 6.83177C13.8519 7.9621 13.8519 10.7879 15.8097 11.9183C15.9285 11.9869 15.9692 12.1388 15.9006 12.2576L14.899 13.9925C14.8304 14.1113 14.6785 14.152 14.5597 14.0834C12.6019 12.953 10.1547 14.366 10.1547 16.6266C10.1547 16.7638 10.0435 16.875 9.90634 16.875H7.90313C7.76593 16.875 7.65471 16.7638 7.65471 16.6266C7.65471 14.3658 5.20739 12.953 3.24963 14.0833C3.13077 14.1519 2.97879 14.1112 2.91019 13.9924L1.90864 12.2576C1.84004 12.1388 1.88075 11.9869 1.99956 11.9183C3.95736 10.788 3.95736 7.9621 1.99956 6.83177C1.88075 6.76317 1.84004 6.61124 1.90864 6.49243L2.91019 4.75768C2.9788 4.63884 3.13077 4.59812 3.24961 4.66673C5.20742 5.79707 7.65471 4.38416 7.65471 2.12346C7.65471 1.98624 7.76595 1.875 7.90317 1.875ZM5.77971 2.12346C5.77971 0.950704 6.73041 0 7.90317 0H9.90631C11.079 0 12.0297 0.9507 12.0297 2.12342C12.0297 2.9407 12.9144 3.45152 13.6222 3.04288C14.6378 2.45653 15.9364 2.8045 16.5228 3.82008L17.5244 5.55493C18.1108 6.57054 17.7628 7.8692 16.7472 8.45556C16.0394 8.86422 16.0394 9.88584 16.7472 10.2945C17.7628 10.8809 18.1108 12.1795 17.5244 13.1951L16.5228 14.93C15.9364 15.9456 14.6378 16.2935 13.6222 15.7072C12.9144 15.2985 12.0297 15.8093 12.0297 16.6266C12.0297 17.7993 11.079 18.75 9.90634 18.75H7.90313C6.7304 18.75 5.77971 17.7993 5.77971 16.6266C5.77971 15.8093 4.89493 15.2985 4.18713 15.7071C3.17149 16.2935 1.87278 15.9455 1.2864 14.9299L0.284838 13.1951C-0.301526 12.1795 0.046448 10.8809 1.06206 10.2945C1.76987 9.88584 1.76987 8.86421 1.06206 8.45556C0.0464485 7.8692 -0.301526 6.57054 0.284839 5.55493L1.2864 3.82018C1.87278 2.80454 3.17148 2.45656 4.18711 3.04294C4.89493 3.4516 5.77971 2.94077 5.77971 2.12346ZM10.7797 9.375C10.7797 10.4105 9.94021 11.25 8.90468 11.25C7.86914 11.25 7.02968 10.4105 7.02968 9.375C7.02968 8.33946 7.86914 7.5 8.90468 7.5C9.94021 7.5 10.7797 8.33946 10.7797 9.375ZM12.6547 9.375C12.6547 11.4461 10.9757 13.125 8.90468 13.125C6.83361 13.125 5.15468 11.4461 5.15468 9.375C5.15468 7.30393 6.83361 5.625 8.90468 5.625C10.9757 5.625 12.6547 7.30393 12.6547 9.375Z"/></svg>