<svg xmlns="http://www.w3.org/2000/svg" viewBox="0 0 14 14" fill="#FFD700"><path d="M6.63869 11.6902L3.50621 13.6092C3.18049 13.8087 2.75468 13.7064 2.55515 13.3807C2.45769 13.2216 2.42864 13.0299 2.47457 12.8491L2.95948 10.9405C3.13452 10.2515 3.60599 9.6756 4.24682 9.36791L7.6642 7.72716C7.82352 7.65067 7.89067 7.45951 7.81418 7.30019C7.75223 7.17116 7.61214 7.09896 7.47111 7.12338L3.66713 7.78194C2.89387 7.91581 2.1009 7.70228 1.49941 7.19823L0.297703 6.19116C0.00493558 5.94581 -0.033506 5.50958 0.211842 5.21682C0.33117 5.07442 0.502766 4.98602 0.687982 4.97153L4.35956 4.68419C4.61895 4.66389 4.845 4.49974 4.94458 4.25937L6.36101 0.8402C6.5072 0.487302 6.91179 0.319734 7.26469 0.465925C7.43413 0.53612 7.56876 0.67075 7.63896 0.8402L9.05539 4.25937C9.15496 4.49974 9.38101 4.66389 9.6404 4.68419L13.3322 4.97311C13.713 5.00291 13.9975 5.33578 13.9677 5.7166C13.9534 5.89979 13.8667 6.06975 13.7269 6.18896L10.9114 8.58928C10.7131 8.75826 10.6267 9.02425 10.6876 9.27748L11.5532 12.8733C11.6426 13.2447 11.414 13.6182 11.0427 13.7076C10.8642 13.7506 10.676 13.7208 10.5195 13.6249L7.36128 11.6902C7.13956 11.5544 6.8604 11.5544 6.63869 11.6902Z"/></svg>