<svg xmlns="http://www.w3.org/2000/svg" width="20" height="20" viewBox="0 0 24 24" fill="none">
  <circle cx="12" cy="12" r="10" fill="#26A17B"/>
  <path d="M13.5 13.16v-.002c-.1.008-.61.04-1.53.04-.73 0-1.26-.026-1.47-.04v.004c-2.93-.13-5.11-.64-5.11-1.26 0-.62 2.18-1.13 5.11-1.26V13.5c.22.016.76.052 1.49.052.88 0 1.41-.042 1.51-.052v-2.844c2.92.13 5.1.64 5.1 1.256 0 .62-2.18 1.126-5.1 1.258zm0-2.72V8.5h4.24V6H6.26v2.5h4.24v1.94c-3.32.15-5.81.79-5.81 1.56 0 .77 2.49 1.41 5.81 1.56v5.59h2.5v-5.59c3.31-.15 5.8-.79 5.8-1.56 0-.77-2.49-1.41-5.8-1.56z" fill="white"/>
</svg>
